#N canvas 631 -37 1099 713 10;
#X obj 13 47 bng 15 250 50 0 empty empty empty 17 7 0 10 #fcfcfc #000000 #000000;
#X obj 50 318 metro 1000;
#X obj 60 288 bng 15 250 50 0 empty empty empty 17 7 0 10 #fcfcfc #000000 #000000;
#X msg 50 259 stop;
#X floatatom 62 132 5 0 0 0 - - - 0;
#X msg 122 47 1 2 3;
#X symbolatom 252 63 10 0 0 0 - - - 0;
#X msg 471 146 goto home;
#X obj 252 41 bng 15 250 50 0 empty empty empty 17 7 0 10 #fcfcfc #000000 #000000;
#X msg 456 92 moveto 1 2 3;
#X obj 19 259 vsl 15 50 0 50 0 0 empty empty empty 0 -9 0 10 #fcfcfc #000000 #000000 0 1;
#X msg 446 59 blah;
#X msg 603 138 list symbol;
#X msg 266 90 symbol symbol;
#X msg 138 76 list 1 2 3;
#X obj 79 177 s msg-to-python;
#X obj 19 359 s msg-to-python;
#X obj 478 187 s msg-to-python;
#X text 589 32 quirky cases;
#X obj 301 177 s msg-to-python;
#X msg 154 104 list blah foo;
#X msg 550 55 list;
#X msg 567 81 symbol;
#X msg 585 110 float;
#X msg 48 105 float 6;
#X msg 32 76 6;
#X msg 280 116 symbol foo;
#X msg 619 163 list foo;
#X msg 169 132 list symbol foo;
#X text 10 30 bang;
#X text 32 58 float;
#X text 120 24 list;
#X obj 625 189 s msg-to-python;
#X text 583 54 empty list;
#X text 612 80 null symbol;
#X text 625 110 implicit zero;
#X msg 687 140 foo;
#X obj 687 163 pack s;
#X symbolatom 362 92 10 0 0 0 - - - 0;
#X msg 362 66 list bar;
#X obj 361 146 unpack s;
#X msg 361 121 bar;
#X msg 565 442 tuple;
#X obj 565 465 s msg-to-python;
#X text 251 21 symbols;
#X text 13 528 Python objects have two required creation arguments: module_name class_name;
#X text 11 564 Additional creation arguments are passed to the class initializer function.;
#X text 11 598 This object represents an instance of the PyHelpClass found in the python_help.py file.;
#X obj 186 177 s msg-to-python;
#X text 16 234 typical Pd messages;
#X obj 20 436 r msg-to-python;
#X text 551 407 Python tuples are returned;
#X text 551 417 as multiple messages.;
#X text 11 630 The Python load path is extended to include the current canvas path so that Python modules can be located in the same folder as a patch.;
#X text 402 14 Messages with selectors;
#X text 414 32 call methods by name.;
#X obj 20 488 print output;
#X obj 20 461 pdpython3 pdpython3_help HelpClass;
#X msg 463 117 moveto a b c;
#X obj 640 351 s msg-to-python;
#X obj 391 597 s msg-to-python;
#X text 482 551 Return a list of all keys in the dictionary., f 16;
#X msg 415 564 dict_keys;
#X msg 397 541 dict_get age;
#X msg 381 514 dict_get name;
#X msg 368 482 dict_set age 42;
#X msg 352 453 dict_set name Hilbert;
#X text 365 423 Dict;
#N canvas 0 50 450 250 (subpatch) 0;
#X array array1 56 float 2;
#X coords 0 1 56 -1 100 40 1 0 0;
#X restore 507 269 graph;
#X msg 155 243 array_get array1;
#X obj 166 373 s msg-to-python;
#N canvas 0 50 450 250 (subpatch) 0;
#X array array2 54 float 2;
#X coords 0 1 54 -1 100 40 1 0 0;
#X restore 506 329 graph;
#X msg 170 267 array_get array2;
#X msg 186 290 array_set array1 0 0.1 0.2 0.3 0.4, f 18;
#X msg 188 333 array_set array2 0 -0.1 -0.2 -0.3 -0.4, f 19;
#X floatatom 348 293 5 0 0 0 - - - 0;
#X msg 348 315 array_resize array1 \$1;
#X obj 319 379 s msg-to-python;
#X text 328 222 size array;
#X msg 311 244 array_size array1;
#X msg 323 268 array_size array2;
#X text 175 221 array;
#X floatatom 358 337 5 0 0 0 - - - 0;
#X msg 356 357 array_resize array2 \$1;
#X obj 629 650 s msg-to-python;
#X msg 629 569 test;
#X msg 629 589 test2;
#X floatatom 950 516 5 0 0 0 - - - 0;
#X obj 950 537 s aaa;
#X obj 764 557 s msg-to-python;
#X msg 764 537 value_get aaa;
#X obj 764 515 s msg-to-python;
#X msg 764 495 value_set aaa \$1;
#X floatatom 764 474 5 0 0 0 - - - 0;
#X obj 887 499 bng 17 250 50 0 empty empty empty 0 -9 0 10 #fcfcfc #000000 #000000;
#X obj 887 521 v aaa;
#X floatatom 887 543 5 0 0 0 - - - 0;
#X obj 837 185 s msg-to-python;
#X floatatom 837 144 5 0 0 0 - - - 0;
#X obj 990 515 r aaa;
#X floatatom 990 537 5 0 0 0 - - - 0;
#X text 878 462 Value:;
#X obj 838 243 s msg-to-python;
#X msg 838 223 send_symbol bbb Something;
#X obj 877 366 r bbb;
#X obj 877 410 print bbb;
#X obj 840 105 s msg-to-python;
#X msg 837 165 send_float bbb \$1;
#X msg 840 85 send_bang bbb;
#X obj 839 332 s msg-to-python;
#X msg 839 270 send_list bbb 1 2 3;
#X msg 850 294 send_list bbb A 1 2 3;
#X text 875 48 Send:;
#X text 640 545 Test:;
#X msg 629 609 test_for;
#X text 646 247 debug level;
#X msg 639 272 debug_level 0;
#X text 732 271 error;
#X msg 655 295 debug_level 1;
#X msg 668 316 debug_level 2;
#X text 748 294 warning;
#X text 761 315 verbose;
#X connect 0 0 15 0;
#X connect 1 0 16 0;
#X connect 2 0 1 0;
#X connect 3 0 1 0;
#X connect 4 0 15 0;
#X connect 5 0 48 0;
#X connect 6 0 19 0;
#X connect 7 0 17 0;
#X connect 8 0 6 0;
#X connect 9 0 17 0;
#X connect 10 0 16 0;
#X connect 11 0 17 0;
#X connect 12 0 32 0;
#X connect 13 0 19 0;
#X connect 14 0 48 0;
#X connect 20 0 48 0;
#X connect 21 0 32 0;
#X connect 22 0 32 0;
#X connect 23 0 32 0;
#X connect 24 0 15 0;
#X connect 25 0 15 0;
#X connect 26 0 19 0;
#X connect 27 0 32 0;
#X connect 28 0 48 0;
#X connect 36 0 37 0;
#X connect 37 0 32 0;
#X connect 38 0 19 0;
#X connect 39 0 38 0;
#X connect 40 0 19 0;
#X connect 41 0 40 0;
#X connect 42 0 43 0;
#X connect 50 0 57 0;
#X connect 57 0 56 0;
#X connect 58 0 17 0;
#X connect 62 0 60 0;
#X connect 63 0 60 0;
#X connect 64 0 60 0;
#X connect 65 0 60 0;
#X connect 66 0 60 0;
#X connect 69 0 70 0;
#X connect 72 0 70 0;
#X connect 73 0 70 0;
#X connect 74 0 70 0;
#X connect 75 0 76 0;
#X connect 76 0 77 0;
#X connect 79 0 77 0;
#X connect 80 0 77 0;
#X connect 82 0 83 0;
#X connect 83 0 77 0;
#X connect 85 0 84 0;
#X connect 86 0 84 0;
#X connect 87 0 88 0;
#X connect 90 0 89 0;
#X connect 92 0 91 0;
#X connect 93 0 92 0;
#X connect 94 0 95 0;
#X connect 95 0 96 0;
#X connect 98 0 107 0;
#X connect 99 0 100 0;
#X connect 103 0 102 0;
#X connect 104 0 105 0;
#X connect 107 0 97 0;
#X connect 108 0 106 0;
#X connect 110 0 109 0;
#X connect 111 0 109 0;
#X connect 114 0 84 0;
#X connect 116 0 59 0;
#X connect 118 0 59 0;
#X connect 119 0 59 0;
